<mxfile host="Electron" modified="2023-11-26T13:43:52.342Z" agent="Mozilla/5.0 (Macintosh; Intel Mac OS X 10_15_7) AppleWebKit/537.36 (KHTML, like Gecko) draw.io/22.0.3 Chrome/114.0.5735.289 Electron/25.8.4 Safari/537.36" etag="ZFQbX4Vf8Xyl1FAyhlyA" version="22.0.3" type="device">
  <diagram id="PKXgxyNqT-ygMeF7_D2m" name="Pagina-1">
    <mxGraphModel dx="1426" dy="1030" grid="1" gridSize="10" guides="1" tooltips="1" connect="1" arrows="1" fold="1" page="1" pageScale="1" pageWidth="827" pageHeight="1169" math="1" shadow="0">
      <root>
        <mxCell id="0" />
        <mxCell id="1" parent="0" />
        <mxCell id="NsX_h1pIpqQCOXLRJEQT-1" value="" style="rounded=0;whiteSpace=wrap;html=1;strokeColor=none;" parent="1" vertex="1">
          <mxGeometry x="190" y="240" width="480" height="240" as="geometry" />
        </mxCell>
        <mxCell id="gdkuOBAO2MH8nIoWm0Fw-1" value="" style="ellipse;whiteSpace=wrap;html=1;aspect=fixed;strokeWidth=2;fillColor=#00ff00;gradientColor=none;shadow=0;fixDash=0;" parent="1" vertex="1">
          <mxGeometry x="280" y="320" width="80" height="80" as="geometry" />
        </mxCell>
        <mxCell id="gdkuOBAO2MH8nIoWm0Fw-2" value="" style="ellipse;whiteSpace=wrap;html=1;aspect=fixed;strokeWidth=2;fillColor=#FF0000;" parent="1" vertex="1">
          <mxGeometry x="480" y="320" width="80" height="80" as="geometry" />
        </mxCell>
        <mxCell id="gdkuOBAO2MH8nIoWm0Fw-4" value="" style="endArrow=classic;html=1;rounded=0;endSize=8;startSize=8;strokeWidth=2;entryX=0.5;entryY=0;entryDx=0;entryDy=0;exitX=0.5;exitY=0;exitDx=0;exitDy=0;edgeStyle=orthogonalEdgeStyle;curved=1;" parent="1" source="gdkuOBAO2MH8nIoWm0Fw-1" target="gdkuOBAO2MH8nIoWm0Fw-2" edge="1">
          <mxGeometry width="50" height="50" relative="1" as="geometry">
            <mxPoint x="350" y="160" as="sourcePoint" />
            <mxPoint x="400" y="110" as="targetPoint" />
            <Array as="points">
              <mxPoint x="320" y="280" />
              <mxPoint x="520" y="280" />
            </Array>
          </mxGeometry>
        </mxCell>
        <mxCell id="gdkuOBAO2MH8nIoWm0Fw-6" value="" style="endArrow=none;html=1;rounded=0;endSize=8;startSize=8;strokeWidth=2;entryX=0.5;entryY=1;entryDx=0;entryDy=0;exitX=0.5;exitY=1;exitDx=0;exitDy=0;edgeStyle=orthogonalEdgeStyle;curved=1;endFill=0;startArrow=classic;startFill=1;" parent="1" source="gdkuOBAO2MH8nIoWm0Fw-1" target="gdkuOBAO2MH8nIoWm0Fw-2" edge="1">
          <mxGeometry width="50" height="50" relative="1" as="geometry">
            <mxPoint x="320" y="460" as="sourcePoint" />
            <mxPoint x="520" y="460" as="targetPoint" />
            <Array as="points">
              <mxPoint x="320" y="440" />
              <mxPoint x="520" y="440" />
            </Array>
          </mxGeometry>
        </mxCell>
        <mxCell id="gdkuOBAO2MH8nIoWm0Fw-8" value="" style="endArrow=classic;html=1;endSize=8;startSize=8;strokeWidth=2;entryX=0;entryY=0;entryDx=0;entryDy=0;exitX=0;exitY=1;exitDx=0;exitDy=0;edgeStyle=orthogonalEdgeStyle;curved=1;" parent="1" source="gdkuOBAO2MH8nIoWm0Fw-1" target="gdkuOBAO2MH8nIoWm0Fw-1" edge="1">
          <mxGeometry width="50" height="50" relative="1" as="geometry">
            <mxPoint x="50" y="360" as="sourcePoint" />
            <mxPoint x="250" y="360" as="targetPoint" />
            <Array as="points">
              <mxPoint x="240" y="388" />
              <mxPoint x="240" y="332" />
            </Array>
          </mxGeometry>
        </mxCell>
        <mxCell id="gdkuOBAO2MH8nIoWm0Fw-10" value="" style="endArrow=none;html=1;endSize=8;startSize=8;strokeWidth=2;entryX=1;entryY=0;entryDx=0;entryDy=0;exitX=1;exitY=1;exitDx=0;exitDy=0;edgeStyle=orthogonalEdgeStyle;curved=1;endFill=0;startArrow=classic;startFill=1;" parent="1" source="gdkuOBAO2MH8nIoWm0Fw-2" target="gdkuOBAO2MH8nIoWm0Fw-2" edge="1">
          <mxGeometry width="50" height="50" relative="1" as="geometry">
            <mxPoint x="550" y="388" as="sourcePoint" />
            <mxPoint x="550" y="332" as="targetPoint" />
            <Array as="points">
              <mxPoint x="600" y="388" />
              <mxPoint x="600" y="332" />
            </Array>
          </mxGeometry>
        </mxCell>
        <mxCell id="gdkuOBAO2MH8nIoWm0Fw-11" value="$$\phi^{2n}(Verde)$$" style="text;html=1;strokeColor=none;fillColor=none;align=center;verticalAlign=middle;whiteSpace=wrap;rounded=0;fontSize=15;" parent="1" vertex="1">
          <mxGeometry x="210" y="300" width="60" height="30" as="geometry" />
        </mxCell>
        <mxCell id="gdkuOBAO2MH8nIoWm0Fw-12" value="$$\phi^{2n}(Rosso)$$" style="text;html=1;strokeColor=none;fillColor=none;align=center;verticalAlign=middle;whiteSpace=wrap;rounded=0;fontSize=15;" parent="1" vertex="1">
          <mxGeometry x="590" y="380" width="60" height="30" as="geometry" />
        </mxCell>
        <mxCell id="gdkuOBAO2MH8nIoWm0Fw-13" value="$$\phi^{2n+1}(Verde)$$" style="text;html=1;strokeColor=none;fillColor=none;align=center;verticalAlign=middle;whiteSpace=wrap;rounded=0;fontSize=15;" parent="1" vertex="1">
          <mxGeometry x="390" y="250" width="60" height="30" as="geometry" />
        </mxCell>
        <mxCell id="gdkuOBAO2MH8nIoWm0Fw-14" value="$$\phi^{2n+1}(Rosso)$$" style="text;html=1;strokeColor=none;fillColor=none;align=center;verticalAlign=middle;whiteSpace=wrap;rounded=0;fontSize=15;" parent="1" vertex="1">
          <mxGeometry x="390" y="440" width="60" height="30" as="geometry" />
        </mxCell>
      </root>
    </mxGraphModel>
  </diagram>
</mxfile>
